<?xml version="1.0" standalone="no"?>
<!DOCTYPE svg PUBLIC "-//W3C//DTD SVG 20010904//EN"
 "http://www.w3.org/TR/2001/REC-SVG-20010904/DTD/svg10.dtd">
<svg version="1.0" xmlns="http://www.w3.org/2000/svg"
 width="2334.000000pt" height="2334.000000pt" viewBox="0 0 2334.000000 2334.000000"
 preserveAspectRatio="xMidYMid meet">
<metadata>
Created by potrace 1.14, written by Peter Selinger 2001-2017
</metadata>
<g transform="translate(0.000000,2334.000000) scale(0.100000,-0.100000)"
fill="#000000" stroke="none">
<path d="M1956 19833 c-3 -4 -6 -397 -6 -873 l0 -867 123 -2 c67 -1 133 -4
147 -5 14 -2 68 -7 120 -11 52 -4 98 -9 101 -11 3 -1 32 -6 65 -10 73 -8 79
-9 129 -18 702 -127 1317 -413 1865 -865 139 -115 398 -371 504 -500 286 -347
491 -688 659 -1101 32 -78 131 -377 141 -425 3 -11 18 -76 35 -145 16 -69 32
-143 35 -165 4 -22 11 -65 16 -95 12 -72 17 -112 25 -185 4 -33 8 -75 10 -94
5 -39 13 -248 20 -531 3 -113 8 -218 10 -235 2 -16 6 -70 10 -118 4 -49 8 -99
11 -110 2 -12 6 -46 9 -75 6 -59 12 -105 30 -214 3 -18 13 -69 21 -113 8 -44
17 -93 20 -110 3 -24 42 -195 58 -255 2 -8 11 -44 21 -80 33 -130 153 -499
190 -585 7 -16 25 -61 40 -100 16 -38 41 -98 56 -132 62 -136 61 -130 40 -172
-68 -131 -215 -525 -294 -786 -14 -44 -73 -274 -82 -315 -2 -8 -18 -87 -36
-176 l-32 -161 -61 14 c-34 8 -70 16 -81 17 -11 2 -63 16 -115 31 -680 190
-1262 527 -1751 1015 -80 80 -161 163 -180 185 -35 41 -165 197 -207 251 -35
44 -226 332 -258 389 -68 122 -107 195 -140 265 -20 41 -43 89 -51 105 -88
179 -226 604 -267 825 -3 14 -10 50 -16 80 -13 69 -17 93 -25 150 -3 25 -8 61
-10 80 -18 124 -32 320 -35 485 0 20 -6 20 -867 20 l-868 0 1 -150 c1 -151 10
-349 19 -395 2 -14 7 -50 9 -80 6 -67 16 -147 22 -180 2 -14 6 -43 9 -65 3
-22 7 -51 10 -65 3 -14 7 -41 10 -60 3 -19 10 -55 15 -80 5 -25 12 -56 14 -70
11 -68 62 -279 96 -399 187 -656 461 -1231 854 -1786 39 -55 76 -107 83 -115
7 -8 51 -64 99 -125 235 -295 529 -598 804 -825 41 -34 94 -78 118 -98 68 -56
306 -227 427 -307 420 -277 926 -516 1420 -672 170 -53 496 -136 625 -158 52
-9 83 -14 105 -19 11 -2 55 -9 98 -16 58 -10 77 -17 78 -29 0 -9 2 -23 4 -31
1 -8 6 -33 9 -55 4 -23 8 -50 10 -62 3 -11 7 -37 10 -58 11 -70 47 -236 72
-333 14 -53 27 -106 29 -117 7 -33 80 -273 115 -375 108 -320 329 -800 467
-1018 18 -29 33 -55 33 -57 0 -3 41 -69 91 -147 348 -544 786 -1027 1289
-1421 47 -37 90 -71 96 -76 6 -5 47 -34 90 -65 44 -31 84 -59 89 -63 184 -140
638 -396 950 -535 148 -66 501 -200 559 -213 6 -1 18 -5 26 -8 8 -4 87 -27
175 -52 245 -69 534 -129 765 -160 25 -3 56 -8 70 -10 14 -2 54 -7 90 -10 36
-3 81 -8 100 -10 218 -27 798 -27 1070 0 76 7 156 16 180 20 14 3 50 7 80 11
30 3 64 8 75 10 11 3 40 7 65 10 24 3 47 7 50 9 3 2 26 6 50 10 74 11 389 82
480 108 221 65 264 79 396 125 536 189 1069 474 1529 820 86 65 237 186 271
217 6 5 50 44 98 85 261 225 655 665 858 955 155 222 259 389 370 589 100 182
268 551 330 726 93 262 144 423 192 615 29 116 82 369 91 435 12 93 27 150 38
151 7 0 19 2 27 4 8 1 33 6 55 9 22 4 54 9 70 11 17 3 41 7 55 9 325 51 883
220 1225 371 251 111 491 232 615 310 22 14 42 25 44 25 5 0 62 35 251 158
180 116 423 302 610 466 128 113 373 352 460 451 483 547 839 1112 1074 1710
18 44 36 89 41 100 11 26 74 203 100 286 58 180 156 561 174 679 3 19 8 46 11
60 3 14 12 70 20 125 9 55 17 111 20 125 2 14 6 48 10 75 3 28 7 66 10 85 19
155 39 568 30 600 -4 13 -109 15 -872 15 l-867 0 -2 -70 c-3 -108 -14 -287
-18 -315 -3 -14 -7 -56 -11 -93 -3 -37 -8 -78 -11 -90 -2 -12 -6 -39 -10 -62
-5 -36 -40 -218 -49 -255 -2 -8 -10 -46 -19 -85 -70 -299 -234 -709 -401
-1000 -440 -764 -1082 -1338 -1905 -1702 -162 -72 -488 -179 -635 -209 -11 -2
-46 -10 -78 -18 -43 -10 -59 -11 -62 -2 -1 6 -8 43 -15 81 -59 340 -183 764
-322 1105 -33 80 -65 159 -71 175 -7 17 -15 32 -18 35 -3 3 -11 21 -18 40 -10
33 -7 45 55 190 97 227 201 514 239 660 2 8 11 40 20 70 39 134 111 456 129
575 4 22 11 67 16 100 42 279 58 485 65 845 4 198 7 276 20 420 5 52 16 149
19 168 2 9 7 37 11 62 90 589 331 1180 679 1670 444 626 1052 1111 1755 1399
103 42 362 132 421 146 8 2 80 20 160 39 80 19 164 38 185 41 22 4 47 8 55 10
8 2 34 7 57 10 23 3 57 8 75 11 18 3 60 7 93 10 33 3 66 7 73 9 12 4 213 15
337 19 l50 1 0 870 0 870 -130 -2 c-127 -1 -285 -9 -375 -18 -99 -10 -156 -17
-185 -20 -16 -2 -52 -7 -80 -10 -27 -3 -90 -13 -140 -21 -49 -8 -103 -17 -120
-20 -42 -6 -61 -10 -215 -43 -715 -154 -1466 -488 -2070 -920 -142 -102 -364
-274 -395 -307 -5 -5 -39 -35 -75 -64 -84 -70 -450 -436 -520 -520 -29 -36
-59 -69 -64 -75 -22 -20 -175 -213 -244 -306 -400 -545 -696 -1140 -886 -1784
-37 -126 -91 -335 -101 -395 -3 -19 -10 -51 -15 -70 -10 -37 -44 -234 -55
-310 -3 -25 -8 -56 -10 -70 -2 -14 -7 -50 -10 -80 -3 -30 -8 -66 -10 -80 -4
-23 -12 -114 -21 -245 -2 -27 -6 -153 -8 -280 -5 -224 -14 -424 -21 -475 -2
-14 -7 -54 -10 -90 -4 -36 -9 -72 -10 -82 -2 -9 -7 -38 -11 -65 -9 -63 -13
-68 -34 -46 -53 56 -281 250 -390 333 -47 35 -89 68 -95 73 -12 10 -176 128
-202 144 -163 108 -226 147 -373 232 -100 59 -479 254 -500 258 -3 0 -23 8
-45 18 -135 57 -220 91 -290 117 -99 37 -245 88 -265 93 -8 2 -62 18 -120 35
-183 54 -382 103 -530 130 -25 5 -61 12 -80 15 -19 4 -42 8 -50 10 -8 1 -33 5
-55 9 l-40 7 1 1587 c1 873 2 1589 3 1592 0 3 896 5 1991 5 1323 0 1990 3
1991 10 1 5 2 397 3 871 l1 861 -4860 -1 -4860 -1 -3 -870 -2 -870 1997 0
1996 0 0 -1565 c-1 -861 -2 -1577 -2 -1592 -1 -29 -9 -33 -86 -43 -54 -7 -314
-59 -380 -77 -22 -5 -47 -12 -56 -13 -41 -8 -250 -69 -376 -109 -774 -249
-1524 -688 -2122 -1244 -41 -38 -44 -34 -55 63 -3 33 -8 69 -10 80 -2 11 -7
54 -11 95 -4 41 -9 91 -11 110 -2 19 -6 139 -9 265 -6 311 -14 467 -29 605 -3
25 -8 70 -11 100 -10 91 -14 124 -19 150 -3 14 -8 45 -11 70 -6 51 -41 244
-55 305 -7 33 -19 84 -25 105 0 3 -5 23 -10 45 -4 22 -9 45 -10 50 -28 125
-177 598 -197 620 -4 5 -8 15 -8 21 0 24 -132 329 -215 498 -88 179 -213 402
-305 546 -51 80 -169 253 -187 275 -4 6 -41 55 -82 110 -41 55 -81 106 -88
113 -7 8 -26 30 -41 50 -15 21 -31 42 -37 48 -5 6 -35 39 -65 74 -148 171
-350 377 -505 515 -55 49 -102 92 -105 95 -10 12 -207 168 -305 241 -467 350
-1023 643 -1572 828 -169 57 -304 98 -344 106 -11 2 -23 6 -27 9 -5 3 -19 7
-33 10 -13 2 -91 20 -174 39 -82 19 -179 39 -215 46 -36 6 -76 14 -90 16 -14
3 -45 8 -70 11 -25 3 -52 7 -60 9 -61 11 -125 19 -240 30 -25 3 -67 7 -95 10
-158 15 -490 27 -499 18z m9944 -6608 c63 -3 133 -8 155 -10 157 -17 213 -24
241 -30 12 -3 39 -7 60 -11 325 -49 767 -195 1105 -364 186 -94 496 -285 607
-375 9 -7 58 -46 107 -86 179 -144 380 -338 522 -504 65 -77 182 -223 201
-253 9 -15 21 -32 27 -38 15 -16 161 -242 202 -314 228 -395 382 -810 467
-1260 14 -74 28 -157 31 -185 3 -27 8 -63 10 -80 23 -175 35 -604 21 -725 -3
-19 -7 -73 -11 -120 -3 -47 -7 -92 -10 -100 -2 -8 -6 -40 -10 -71 -3 -31 -8
-67 -10 -80 -3 -13 -12 -60 -20 -104 -21 -117 -25 -138 -31 -157 -3 -9 -7 -26
-9 -37 -12 -61 -69 -261 -105 -366 -260 -753 -725 -1397 -1370 -1895 -155
-119 -433 -291 -639 -394 -140 -70 -397 -175 -538 -220 -77 -24 -107 -33 -245
-70 -67 -18 -237 -55 -286 -62 -20 -2 -59 -9 -87 -14 -27 -5 -75 -12 -105 -15
-30 -3 -71 -8 -90 -10 -191 -25 -635 -25 -835 0 -22 2 -62 7 -90 11 -495 59
-1074 254 -1483 499 -9 6 -39 24 -67 40 -257 152 -515 355 -756 595 -431 428
-751 934 -952 1505 -34 96 -93 288 -101 330 -2 11 -15 70 -29 130 -14 61 -28
128 -31 150 -4 22 -8 51 -11 65 -2 14 -8 57 -14 95 -23 145 -35 340 -35 550 0
153 10 366 18 412 3 12 7 51 10 87 8 92 51 319 88 466 203 819 668 1556 1323
2100 50 41 92 77 95 81 11 12 221 159 300 210 128 82 217 133 350 200 166 83
254 122 445 195 11 4 22 8 25 9 3 1 12 4 20 8 71 29 422 124 525 142 22 4 49
9 60 11 64 11 218 34 265 39 30 4 69 8 85 10 17 3 84 7 150 11 66 3 121 7 122
7 3 4 224 -2 333 -8z"/>
</g>
</svg>
